<?xml version="1.0" encoding="utf-8"?>
<!-- Generator: Adobe Illustrator 23.0.2, SVG Export Plug-In . SVG Version: 6.00 Build 0)  -->
<svg version="1.1" id="Layer_1" xmlns="http://www.w3.org/2000/svg" xmlns:xlink="http://www.w3.org/1999/xlink" x="0px" y="0px"
	 viewBox="0 0 934 345" style="enable-background:new 0 0 934 345;" xml:space="preserve">
<style type="text/css">
	.st0{fill:#EF3B2D;}
	.st1{fill:#FFFFFF;}
	.st2{display:none;fill:#EF3B2D;}
</style>
<g>
	<g>
		<path class="st0" d="M356.1,274.7h-11.7c-82.7,0-149.7-67-149.7-149.7V70.3h161.4V274.7z"/>
		<path class="st1" d="M343.9,212.3L343.9,212.3c-2,0-4-0.1-6-0.3c-13.8-0.7-20.8-4.3-28.6-15.2c-5.8-8.1-11.4-18.2-16.5-26.1
			c-3.1-4.8-6-6.8-14.8-6.8h-4.8v25.9c0,14,1.6,15.2,15.2,16.4v4.8h-46V206c13.8-1.1,15.3-2.4,15.3-16.4v-65.9
			c0-14.2-1.5-15.1-14.7-16v-5h43.5c12.8,0,21.1,1.5,27.6,5.8c6.9,4.3,11.3,11.7,11.3,21.8c0,14.4-9.3,23.1-21.5,28.2
			c3,5.5,9.9,16.4,15,24c6.1,8.8,10.3,13,13.8,17.5 M280.8,158.2c8.5,0,14.2-1.4,18.5-4.8c6.5-5,9.1-11.5,9.1-20.5
			c0-17.8-11.7-24.4-24.3-24.4c-5.1,0-7.8,0.7-9.1,1.6c-1.1,0.9-1.8,2.8-1.8,7.2v40.9H280.8z"/>
	</g>
	<g>
		<path class="st2" d="M364.1,211.4c-1.9,0-3.6-0.1-5.5-0.3c-12.6-0.6-19-4-26.2-13.9c-5.3-7.4-10.4-16.6-15.1-23.9
			c-2.8-4.4-5.5-6.2-13.5-6.2h-4.4v23.7c0,12.8,1.5,13.9,13.9,15v4.4h-42.1v-4.4c12.6-1,14-2.2,14-15v-60.3c0-13-1.4-13.8-13.4-14.7
			v-4.6h39.8c11.8,0,19.4,1.4,25.3,5.3c6.3,4,10.3,10.7,10.3,20c0,13.2-8.5,21.1-19.7,25.8c2.7,5,9.1,15,13.7,22
			c5.6,8,8.9,12.3,12.6,16c4,4.5,7.4,6.1,10.9,7L364.1,211.4z M306.4,161.9c7.8,0,13-1.2,17-4.4c5.9-4.6,8.3-10.5,8.3-18.7
			c0-16.3-10.7-22.4-22.3-22.4c-4.7,0-7.2,0.6-8.3,1.5c-1,0.8-1.7,2.6-1.7,6.6v37.5H306.4z"/>
		<path class="st0" d="M425.9,196.6c-10,12.6-21.1,15.3-26.1,15.3c-19,0-30.3-15.3-30.3-32.3c0-10.1,3.6-19.2,9.9-26
			c6.7-7.3,15.1-11.7,23.3-11.7h0.1c13.2,0,23.7,11.3,23.7,23.4c0,2.9-0.8,4.3-3.6,4.9c-2.8,0.4-22.2,2-40.1,2.6
			c0.3,19.7,11.9,28,22.6,28c6.3,0,12.3-2.4,17.9-7.6L425.9,196.6z M399.1,147.7c-6.7,0-13.3,5.9-15.5,18.6c8.2,0,16.4,0,25.1-0.3
			c2.7-0.1,3.6-0.9,3.6-2.9c0-8-5-15.4-13.1-15.4H399.1z"/>
		<path class="st0" d="M466.7,209.8c-2.8,1.6-5.2,2.1-6.6,2.1c-10.3,0-16-5.8-16-18.1v-43.7h-10.5l-0.7-1.8l4.3-4.6h7v-11l11.3-10.6
			l2.1,0.4v21.2h17.3c1.6,1.7,1,5-1,6.3h-16.2v38.4c0,12.3,5.3,14.4,9.2,14.4c3.6,0,7.1-1.5,9.4-2.6l1.4,4.2L466.7,209.8z"/>
		<path class="st0" d="M539.4,196.6c-10,12.6-21.1,15.3-26.1,15.3c-19,0-30.3-15.3-30.3-32.3c0-10.1,3.6-19.2,9.9-26
			c6.7-7.3,15.1-11.7,23.3-11.7h0.1c13.2,0,23.7,11.3,23.7,23.4c0,2.9-0.8,4.3-3.6,4.9c-2.8,0.4-22.2,2-40.1,2.6
			c0.3,19.7,11.9,28,22.6,28c6.3,0,12.3-2.4,17.9-7.6L539.4,196.6z M512.6,147.7c-6.7,0-13.3,5.9-15.5,18.6c8.2,0,16.4,0,25.1-0.3
			c2.7-0.1,3.6-0.9,3.6-2.9c0-8-5-15.4-13.1-15.4H512.6z"/>
		<path class="st0" d="M593,210.1V206c8.8-0.9,9.9-2.2,9.9-12.9v-24.8c0-10.6-4.3-17-13.7-17c-5.8,0-11.5,3.6-16.2,7.5v35.2
			c0,10.4,0.8,11,9.8,12v4.1h-34.3V206c10.3-1.2,11.1-2,11.1-12.2v-30.6c0-9.9-1-10.5-9.2-12v-3.8c7.4-1.1,15.4-3.1,22.6-6v12.3
			c3.1-2.3,6.4-4.7,10.4-7.3c4.4-2.8,8.2-4.5,12.8-4.5c12.3,0,20.1,8.6,20.1,23.7v28.4c0,10.4,0.9,10.8,9.9,12v4.1H593z"/>
		<path class="st0" d="M701.2,147.8c-8.2,1.1-9.6,2.6-13.6,11.4c-5.3,11.1-13.5,30-22.3,52.5h-4.4c-7.3-18.3-14.5-35.5-21.8-53.1
			c-3.5-8.3-5-9.6-13.2-10.9v-4.1H659v4.1c-8.3,1.2-8.7,2.3-6.2,8.8c3.8,10.1,10.2,26.2,14.5,36.2c5-11.5,10.1-25.5,13.4-35.3
			c2.3-6.9,1.5-8.6-7.2-9.8v-4.1h27.7V147.8z"/>
		<path class="st0" d="M704.1,210.1V206c9.7-0.9,10.8-1.9,10.8-12.5V163c0-9.6-0.5-10.3-9.7-11.9v-3.6c8.3-1.4,16.1-3.1,23.1-5.8
			v51.9c0,10.5,1,11.3,10.9,12.5v4.1H704.1z M712.2,120.8c0-4.9,4-8.5,8.5-8.5c4.6,0,8.1,3.6,8.1,8.5c0,4.4-3.5,8.2-8.3,8.2
			C716.2,129,712.2,125.2,712.2,120.8z"/>
	</g>
</g>
</svg>
