<?xml version="1.0" encoding="utf-8"?>
<!-- Generator: Adobe Illustrator 23.0.2, SVG Export Plug-In . SVG Version: 6.00 Build 0)  -->
<svg version="1.1" id="Layer_1" xmlns="http://www.w3.org/2000/svg" xmlns:xlink="http://www.w3.org/1999/xlink" x="0px" y="0px"
	 viewBox="0 0 763 242" style="enable-background:new 0 0 763 242;" xml:space="preserve">
<style type="text/css">
	.st0{fill:#28282A;}
</style>
<g>
	<path class="st0" d="M81.2,82.7h14.7v63h32.9v13.7H81.2V82.7z"/>
	<path class="st0" d="M162.9,82.7h16.8l29.2,76.7h-16.2l-6.5-18.3h-29.8l-6.5,18.3h-16.2L162.9,82.7z M181.5,127.7l-6.8-19.3
		l-2.8-9.2h-0.9l-2.8,9.2l-7,19.3H181.5z"/>
	<path class="st0" d="M219.5,82.7h28.4c5.1,0,9.6,1,13.5,3.1c3.9,2.1,7,4.9,9.2,8.6c2.2,3.7,3.3,7.8,3.3,12.5
		c0,4.9-1.6,9.3-4.7,13.1c-3.2,3.8-7.1,6.6-11.9,8.3l-0.1,0.7l20.9,29.4v0.9h-16.8L241,130.5h-6.8v28.8h-14.7V82.7z M247.8,117.3
		c3.3,0,6-1,8.1-3c2.1-2,3.2-4.5,3.2-7.6c0-2.9-1-5.4-3-7.5c-2-2.1-4.7-3.1-8.1-3.1h-13.8v21.2H247.8z"/>
	<path class="st0" d="M310.2,82.7h16.8l29.2,76.7h-16.2l-6.5-18.3h-29.8l-6.5,18.3h-16.2L310.2,82.7z M328.8,127.7l-6.8-19.3
		l-2.8-9.2h-0.9l-2.8,9.2l-7,19.3H328.8z"/>
	<path class="st0" d="M366.8,82.7h18.9l20.6,53.9h0.9l20.6-53.9h19v76.7h-14.6v-37.8l0.9-12.7h-0.9l-19.8,50.5h-11.4l-19.9-50.5
		h-0.9l0.9,12.7v37.8h-14.5V82.7z"/>
	<path class="st0" d="M486.5,82.7h16.8l29.2,76.7h-16.2l-6.5-18.3H480l-6.5,18.3h-16.2L486.5,82.7z M505,127.7l-6.8-19.3l-2.8-9.2
		h-0.9l-2.8,9.2l-7,19.3H505z"/>
	<path class="st0" d="M557.5,155.8c-6.3-3.5-11.2-8.2-14.9-14.3c-3.7-6.1-5.5-12.9-5.5-20.5c0-7.6,1.8-14.4,5.5-20.5
		s8.7-10.9,14.9-14.3c6.3-3.5,13.1-5.2,20.6-5.2c6.1,0,11.6,1.1,16.7,3.2c5,2.1,9.4,5.1,13,8.9l-10.1,9.7c-2.6-2.7-5.5-4.7-8.6-6.1
		c-3.2-1.4-6.8-2-11-2c-4.8,0-9.2,1.1-13.1,3.3c-4,2.2-7.2,5.3-9.5,9.3c-2.4,4-3.5,8.6-3.5,13.8s1.2,9.7,3.6,13.8
		c2.4,4,5.6,7.1,9.6,9.3c4,2.2,8.4,3.3,13.2,3.3c7.2,0,13.2-2.1,17.8-6.3c1.4-1.3,2.7-2.9,3.8-4.9c1.1-2,1.9-4.2,2.4-6.5h-24.4
		v-12.3h38.1c0.5,2,0.8,4.2,0.8,6.7c0,5.1-0.8,9.8-2.3,14.1c-1.6,4.4-3.9,8.2-7.1,11.5c-3.5,3.7-7.7,6.5-12.6,8.5
		c-4.9,2-10.4,2.9-16.5,2.9C570.6,161,563.7,159.3,557.5,155.8z"/>
	<path class="st0" d="M624.9,144.8l39.4-48.4h-37.7V82.7h54.8v14.6l-39,48.4h39.4v13.7h-56.9V144.8z"/>
</g>
<g>
	<path class="st0" d="M751,12v218H12V12H751 M763,0H0v242h763V0L763,0z"/>
</g>
</svg>
